<svg xmlns="http://www.w3.org/2000/svg" fill="#830a0b" data-name="Layer 1" viewBox="0 0 128 160" x="0px" y="0px"><path d="M99.08408,49.13869a34.37917,34.37917,0,0,0-.93226-8.18451A35.50862,35.50862,0,0,0,75.05695,15.78959,35.142,35.142,0,0,0,34.05333,30.72938a36.08682,36.08682,0,0,0-5.00014,21.98891c.46191,5.5101,2.2975,10.72952,4.38029,15.815a195.02689,195.02689,0,0,0,17.0683,32.07466,85.187,85.187,0,0,0,8.11973,11.02536,7.23794,7.23794,0,0,0,10.70689,0c7.33212-8.06693,12.8592-18.204,17.92382-27.77824C92.88517,73.20636,99.03215,61.38647,99.08408,49.13869ZM63.97495,28.46893A20.69112,20.69112,0,0,1,84.64484,49.04578v.093a20.66991,20.66991,0,0,1-41.33979,0v-.093A20.69112,20.69112,0,0,1,63.97495,28.46893Z"/></svg>
