<svg xmlns="http://www.w3.org/2000/svg" xmlns:xlink="http://www.w3.org/1999/xlink" version="1.1" x="0px" y="0px" viewBox="0 0 100 125" fill="#695b5b" enable-background="new 0 0 100 100" xml:space="preserve"><g><path d="M50,91.57c5.51-4.45,33.89-28.43,33.89-49.68C83.89,23.21,68.68,8.01,50,8.01s-33.89,15.2-33.89,33.88   C16.11,63.06,44.5,87.11,50,91.57z M50,5c20.34,0,36.89,16.55,36.89,36.89c0,25.09-35.66,52.57-36.02,52.83   C50.61,94.91,50.31,95,50,95c-0.32,0-0.65-0.1-0.92-0.31c-1.47-1.13-35.97-28.01-35.97-52.8C13.11,21.55,29.66,5,50,5z"/><path d="M50,14.01c-15.379,0-27.89,12.507-27.89,27.88c0,13.059,14.279,29.989,27.897,41.848   C63.619,71.923,77.89,55.018,77.89,41.89C77.89,26.517,65.379,14.01,50,14.01z M67.74,37.648l-7.519,7.329l1.775,10.349   c0.261,1.521-1.336,2.681-2.702,1.963L50,52.403l-9.294,4.886c-1.366,0.718-2.963-0.442-2.702-1.963l1.775-10.349l-7.519-7.329   c-1.105-1.077-0.495-2.954,1.032-3.176l10.391-1.51l4.647-9.416c0.683-1.384,2.657-1.384,3.34,0l4.647,9.416l10.391,1.51   C68.236,34.693,68.845,36.57,67.74,37.648z"/></g></svg>
